<svg width="13" height="17" viewBox="0 0 13 17" fill="none" xmlns="http://www.w3.org/2000/svg">
<path d="M0.664063 2.08676C0.664062 1.21473 1.37098 0.507812 2.24301 0.507812L10.7518 0.507812C11.6238 0.507812 12.3307 1.21473 12.3307 2.08676V4.67448C12.3307 4.74421 12.3295 4.81365 12.3271 4.88279C12.2501 4.8832 12.1719 4.89792 12.0962 4.92851L12.0931 4.92975L12.0792 4.93529C12.0665 4.94031 12.0473 4.9479 12.022 4.95772C11.9714 4.97736 11.8967 5.00589 11.8029 5.04051C11.6148 5.10988 11.3511 5.20315 11.0496 5.29843C10.4324 5.49345 9.70914 5.67971 9.15449 5.71116C8.25099 5.7624 7.60472 5.4124 6.80344 4.96273L6.76761 4.94261C5.99 4.50603 5.0589 3.98328 3.76987 4.05637C3.0512 4.09712 2.2039 4.32456 1.56894 4.52518C1.24441 4.62772 0.961598 4.72777 0.759652 4.80226C0.726309 4.81456 0.695128 4.82618 0.666283 4.83701C0.664806 4.78302 0.664063 4.72883 0.664063 4.67448L0.664063 2.08676Z" fill="#D199FF"/>
<path d="M0.841295 6.10715C1.43045 8.44033 3.42537 10.2141 5.8724 10.4747V14.8828H3.16406C2.81888 14.8828 2.53906 15.1626 2.53906 15.5078C2.53906 15.8529 2.81888 16.1328 3.16406 16.1328H9.83073C10.1759 16.1328 10.4557 15.8529 10.4557 15.5078C10.4557 15.1626 10.1759 14.8828 9.83073 14.8828H7.1224V10.4747C9.51647 10.2197 11.4778 8.5164 12.1133 6.25783C11.9257 6.32546 11.6897 6.40708 11.4262 6.49035C10.7912 6.69097 9.94393 6.91841 9.22525 6.95916C7.93622 7.03225 7.00512 6.5095 6.22752 6.07292L6.19169 6.0528C5.39041 5.60313 4.74413 5.25313 3.84064 5.30437C3.28598 5.33582 2.56277 5.52208 1.94555 5.7171C1.64399 5.81238 1.38029 5.90565 1.19225 5.97502C1.09838 6.00964 1.02376 6.03816 0.973149 6.05781C0.947853 6.06763 0.928584 6.07522 0.915939 6.08024L0.902026 6.08578L0.898942 6.08702C0.879866 6.09473 0.86063 6.10143 0.841295 6.10715Z" fill="#D199FF"/>
</svg>
