<svg width="97" height="104" viewBox="0 0 97 104" fill="none" xmlns="http://www.w3.org/2000/svg">
<path d="M80.7656 80.3589L85.085 42.1094C85.085 42.1094 97.9753 55.4418 95.7425 62.7274C94.7434 65.9829 83.0698 72.766 83.0698 72.766C83.9839 77.766 86.2371 72.225 87.9669 74.1232C89.6933 77.1066 85.3739 81.1752 80.7656 80.3621V80.3589Z" fill="#FEBFE4" stroke="#30545A" stroke-width="0.644828"/>
<path d="M82.8281 62.1971C85.173 61.1408 87.5214 60.0876 89.8663 59.0312" stroke="#30545A" stroke-width="0.644828"/>
<path d="M21.1646 33.1419C20.1586 15.4784 35.2986 1 54.0818 1C72.4877 1 87.4748 14.9246 86.7985 32.252C85.7212 59.89 82.4417 96.4046 72.678 100.172C64.6781 103.258 39.5501 104.57 33.1135 100.172C26.0515 95.3482 22.7075 60.2357 21.1646 33.1451V33.1419Z" fill="url(#paint0_linear_4585_25018)"/>
<path d="M86.5076 32.2438C85.9707 46.0596 84.8798 62.0841 82.7082 75.122C81.6207 81.6426 80.2647 87.4045 78.5791 91.7644C77.7363 93.9443 76.8119 95.7657 75.8026 97.1518C74.7932 98.541 73.7125 99.4789 72.5639 99.9207C68.6149 101.444 60.3771 102.542 52.2956 102.706C48.2617 102.789 44.2855 102.635 40.9177 102.19C37.5397 101.745 34.8209 101.009 33.2746 99.9495C32.4488 99.3861 31.6502 98.3554 30.8855 96.8957C30.1243 95.4424 29.414 93.5858 28.7513 91.3962C27.4259 87.0204 26.301 81.3481 25.3461 74.9684C23.4362 62.2121 22.2161 46.671 21.4447 33.1272C20.4557 15.6238 35.4564 1.27344 54.0798 1.27344C72.7032 1.27344 87.1771 15.0796 86.5076 32.2438Z" fill="white" stroke="#30545A" stroke-width="0.644828"/>
<path d="M27.3949 35.5154C26.4774 19.6029 40.241 6.61941 57.1584 6.84669C73.5592 7.06756 86.7281 19.6446 86.0247 35.0801C84.91 59.5074 82.0383 91.7838 74.6399 95.9484C74.6365 95.9484 74.6331 95.9516 74.6263 95.9548C67.4386 98.7109 43.8671 98.9798 38.0932 95.0521C31.7891 90.7627 28.7849 59.6739 27.3915 35.5154H27.3949Z" fill="#FEBFE4"/>
<path d="M51.3034 34.0927C54.008 34.0927 56.2005 32.0275 56.2005 29.4799C56.2005 26.9324 54.008 24.8672 51.3034 24.8672C48.5988 24.8672 46.4062 26.9324 46.4062 29.4799C46.4062 32.0275 48.5988 34.0927 51.3034 34.0927Z" fill="#161616"/>
<path d="M50.1597 29.7484C50.9555 29.7484 51.6006 29.2626 51.6006 28.6633C51.6006 28.064 50.9555 27.5781 50.1597 27.5781C49.3639 27.5781 48.7188 28.064 48.7188 28.6633C48.7188 29.2626 49.3639 29.7484 50.1597 29.7484Z" fill="white"/>
<path d="M70.8893 34.0927C73.5939 34.0927 75.7865 32.0275 75.7865 29.4799C75.7865 26.9324 73.5939 24.8672 70.8893 24.8672C68.1847 24.8672 65.9922 26.9324 65.9922 29.4799C65.9922 32.0275 68.1847 34.0927 70.8893 34.0927Z" fill="#161616"/>
<path d="M69.7378 29.7484C70.5336 29.7484 71.1787 29.2626 71.1787 28.6633C71.1787 28.064 70.5336 27.5781 69.7378 27.5781C68.942 27.5781 68.2969 28.064 68.2969 28.6633C68.2969 29.2626 68.942 29.7484 69.7378 29.7484Z" fill="white"/>
<path d="M55.9293 39.1263C56.8231 37.9963 59.4569 43.6334 62.247 43.6334C65.0371 43.6334 67.6709 38.0027 68.5647 39.1263C69.4585 40.2531 68.3404 43.0412 66.0396 44.7602C63.7695 46.4535 60.7279 46.4535 58.4578 44.7602C56.157 43.0412 55.0423 40.2499 55.9293 39.1263Z" fill="#161616"/>
<path d="M32.4 11.0355C32.3042 9.46981 36.8619 8.62351 39.0267 8.31042C39.709 8.21173 40.5248 8.51327 40.566 9.18706C40.6915 11.2388 34.2181 13.6375 32.8259 12.0551C32.5275 11.7161 32.4269 11.4751 32.4 11.0355Z" fill="#FFAFCB" fill-opacity="0.31"/>
<path d="M28.3592 16.8625C27.7199 16.2098 29.3624 14.3122 30.2107 13.4166C30.4936 13.1179 30.9828 12.9575 31.2633 13.2439C32.1117 14.1099 30.1703 17.3921 28.9419 17.1683C28.6787 17.1203 28.541 17.0481 28.3592 16.8625Z" fill="#FFAFCB" fill-opacity="0.31"/>
<path d="M16.4844 41.339C16.6781 40.6636 16.9432 39.6168 17.1301 38.3172C17.5039 35.7115 17.1675 34.8344 17.7384 33.1122C18.0069 32.296 18.4419 30.9899 19.6823 29.9048C22.153 27.7376 25.5888 28.4067 26.2243 28.7396C26.4248 28.8452 27.0161 29.1525 27.0637 29.6295C27.0875 29.7543 27.1113 29.94 27.0739 30.1609C27.0739 30.1609 27.0433 30.3369 26.9651 30.5098C26.7103 31.0668 25.2014 32.901 24.6372 33.7685C24.3381 34.2262 24.1818 34.6423 23.8726 35.4714C22.6287 38.7845 23.1895 41.4286 22.4554 45.1194C22.2651 46.0862 21.9083 47.4978 21.198 49.172C19.6279 46.5599 18.0612 43.9478 16.4912 41.3326L16.4844 41.339Z" fill="#FEBFE4"/>
<mask id="mask0_4585_25018" style="mask-type:luminance" maskUnits="userSpaceOnUse" x="16" y="28" width="12" height="22">
<path d="M16.4766 41.339C16.6703 40.6636 16.9354 39.6168 17.1223 38.3172C17.4961 35.7115 17.1596 34.8344 17.7306 33.1122C17.9991 32.296 18.4341 30.9899 19.6745 29.9048C22.1451 27.7376 25.581 28.4067 26.2165 28.7396C26.417 28.8452 27.0083 29.1525 27.0559 29.6295C27.0797 29.7543 27.1035 29.94 27.0661 30.1609C27.0661 30.1609 27.0355 30.3369 26.9573 30.5098C26.7024 31.0668 25.1935 32.901 24.6294 33.7685C24.3303 34.2262 24.174 34.6423 23.8648 35.4714C22.6209 38.7845 23.1817 41.4286 22.4476 45.1194C22.2573 46.0862 21.9005 47.4978 21.1902 49.172C19.6201 46.5599 18.0534 43.9478 16.4834 41.3326L16.4766 41.339Z" fill="white"/>
</mask>
<g mask="url(#mask0_4585_25018)">
<path d="M21.3817 28.4766C19.7946 30.4772 19.2339 32.2282 19.0062 33.2269C18.7071 34.5362 18.6426 36.0343 18.6222 36.5561C18.5848 37.3915 18.6018 38.0926 18.6222 38.5983L16.0938 37.7052C16.855 35.1508 17.6162 32.5963 18.3741 30.0419L21.3783 28.4766H21.3817Z" fill="white"/>
</g>
<path d="M17.1797 38.0671C17.1933 37.699 17.2171 37.174 17.268 36.5434C17.3836 35.0549 17.438 34.309 17.6181 33.5984C17.8016 32.8621 18.172 31.3929 19.4736 30.1604C20.2281 29.4498 21.0301 29.0689 21.5501 28.864C22.3181 28.6015 23.4056 28.355 24.663 28.4639C25.1728 28.5087 26.0904 28.6399 26.8142 29.2129C27.1405 29.469 27.1847 29.6771 27.1983 29.7251C27.375 30.3429 26.6783 30.9671 26.1481 31.5273C26.1481 31.5273 23.4498 34.3666 23.2663 37.5453C23.2629 37.6061 23.2561 37.7214 23.2425 38.0319C23.2357 38.1727 23.2051 38.7841 23.1201 40.0069C23.0216 41.4314 22.8857 42.8463 22.8449 43.2656" stroke="#30545A" stroke-width="0.644828"/>
<path d="M31.7944 61.6852C24.1649 63.3882 21.5073 62.3638 20.5218 61.0578C18.2312 58.0232 21.9627 49.4795 22.7681 44.3258C22.8905 43.5319 22.6594 42.9718 22.9279 41.7586C23.0502 41.2016 23.2201 40.7246 22.9618 40.4845C22.656 40.1996 22.0986 40.5806 21.5175 40.3597C20.9466 40.1452 20.6815 39.4794 20.549 38.8936C20.2601 38.4166 19.2746 36.9442 17.3069 36.2751C17.1199 36.2111 14.8498 35.4749 12.702 36.4704L7.51598 45.7919C6.57801 51.1441 6.80571 55.5039 7.15574 58.3753C7.83883 63.9675 8.37918 68.3882 11.7912 70.4049C13.7725 71.5765 16.3179 71.4068 21.4054 71.0643C25.2286 70.8082 28.3552 70.2288 30.5132 69.7391C30.9414 67.0534 31.3662 64.3677 31.7944 61.682V61.6852Z" fill="#FEBFE4"/>
<mask id="mask1_4585_25018" style="mask-type:luminance" maskUnits="userSpaceOnUse" x="6" y="35" width="26" height="37">
<path d="M31.7944 61.6852C24.1649 63.3882 21.5073 62.3638 20.5218 61.0578C18.2312 58.0232 21.9627 49.4795 22.7681 44.3258C22.8905 43.5319 22.6594 42.9718 22.9279 41.7586C23.0502 41.2016 23.2201 40.7246 22.9618 40.4845C22.656 40.1996 22.0986 40.5806 21.5175 40.3597C20.9466 40.1452 20.6815 39.4794 20.549 38.8936C20.2601 38.4166 19.2746 36.9442 17.3069 36.2751C17.1199 36.2111 14.8498 35.4749 12.702 36.4704L7.51598 45.7919C6.57801 51.1441 6.80571 55.5039 7.15574 58.3753C7.83883 63.9675 8.37918 68.3882 11.7912 70.4049C13.7725 71.5765 16.3179 71.4068 21.4054 71.0643C25.2286 70.8082 28.3552 70.2288 30.5132 69.7391C30.9414 67.0534 31.3662 64.3677 31.7944 61.682V61.6852Z" fill="white"/>
</mask>
<g mask="url(#mask1_4585_25018)">
<path d="M6.21237 51.6254C7.75866 45.8506 10.6677 41.7469 12.5912 39.4453C10.7935 44.0292 8.46893 52.0511 10.0186 61.7183C10.5794 65.2171 11.5377 68.2581 12.5708 70.7837C10.6099 70.2236 8.64904 69.6634 6.69155 69.1032C5.73659 66.1326 4.09515 59.5384 6.21237 51.6222V51.6254Z" fill="white"/>
</g>
<path d="M6.88281 51.8438C6.99836 55.3617 7.21586 58.2747 7.41637 60.4322C7.5625 61.9879 7.71203 63.3164 8.23879 64.9905C8.87429 67.0168 9.49621 68.8894 11.3246 70.093C12.5378 70.8933 13.8564 71.1174 14.6482 71.2518C16.045 71.4919 17.1189 71.4183 18.2268 71.3286C20.9319 71.1078 23.2157 70.8933 25.0576 70.714" stroke="#30545A" stroke-width="0.644828"/>
<path d="M23.1607 39.4531C23.1335 40.1414 23.069 41.2073 22.9194 42.5005C22.6441 44.8693 22.2567 46.3834 21.0877 51.1434C19.8914 55.9994 19.6773 56.9309 19.8065 58.5027C19.9628 60.3817 20.5065 61.8894 20.9415 62.8689" stroke="#30545A" stroke-width="0.644828"/>
<path d="M20.1406 60.5859C20.3479 60.9124 20.732 61.4214 21.3878 61.844C22.4923 62.5546 23.6376 62.5546 24.0522 62.5354" stroke="#30545A" stroke-width="0.644828"/>
<path d="M8.12116 34.7733C7.12203 34.9142 6.62246 34.9846 6.03453 35.2439C3.16285 36.5147 2.4152 39.9591 1.78989 42.8496C1.12719 45.9162 0.379539 49.3766 2.44239 51.4029C3.12887 52.0751 3.87992 52.2672 5.16793 52.7441C9.14069 54.223 12.5459 54.9881 14.935 55.4074C17.3819 55.3946 19.2306 53.9157 19.4074 52.2832C19.5535 50.9227 18.5 49.8632 18.2757 49.6455C18.4252 49.5719 20.8721 48.301 20.957 45.9611C20.991 45.0328 20.6376 44.2965 20.3895 43.8868C21.6333 43.0225 22.2994 41.678 22.0921 40.3784C21.9324 39.3733 21.3003 38.7106 21.0114 38.445C19.2476 37.0781 17.596 36.2938 16.4677 35.8457C14.6869 35.1383 11.7813 34.258 8.12116 34.7701V34.7733Z" fill="#FEBFE4"/>
<path d="M9.07812 40.4297C16.1707 40.705 20.8095 43.2626 20.9794 45.8139C21.0066 46.2044 20.9998 47.7185 18.2743 49.6456" stroke="#30545A" stroke-width="0.644828"/>
<path d="M7.65497 46.6752C14.0474 46.8513 18.7712 48.6343 19.3354 51.1631C19.4849 51.8417 19.5155 53.3814 18.394 54.4538C17.1128 55.6734 15.2097 55.4429 14.9378 55.4077C12.7662 54.9948 10.3703 54.4218 7.82829 53.6183C6.15626 53.0901 4.60658 52.5236 3.18264 51.9474C2.8224 51.7297 2.34662 51.3872 1.92182 50.8686C1.36108 50.1804 0.436707 48.6279 1.45963 43.9991C2.44518 39.5336 3.00592 36.9952 5.51736 35.5067C7.43407 34.3703 9.5479 34.4023 10.7645 34.5304C17.626 35.1354 22.0745 38.0803 22.1493 40.8685C22.1629 41.3902 22.0439 42.6323 20.2733 44.1976" stroke="#30545A" stroke-width="0.644828"/>
<defs>
<linearGradient id="paint0_linear_4585_25018" x1="53.9696" y1="1" x2="53.9696" y2="102.999" gradientUnits="userSpaceOnUse">
<stop stop-color="white"/>
<stop offset="1" stop-color="white" stop-opacity="0.12"/>
</linearGradient>
</defs>
</svg>
