<svg width="104" height="99" viewBox="0 0 104 99" fill="none" xmlns="http://www.w3.org/2000/svg">
<g filter="url(#filter0_d_4585_25151)">
<rect x="22" y="15" width="60" height="60" rx="30" fill="#FAEAED"/>
<rect x="20.5" y="13.5" width="63" height="63" rx="31.5" stroke="url(#paint0_linear_4585_25151)" stroke-width="3"/>
<path fill-rule="evenodd" clip-rule="evenodd" d="M39.3869 39.1865C39.8362 38.6624 40.6253 38.6017 41.1494 39.051L52.0026 48.3537L62.8558 39.051C63.38 38.6017 64.1691 38.6624 64.6184 39.1865C65.0676 39.7107 65.0069 40.4998 64.4828 40.9491L52.8161 50.9491C52.348 51.3503 51.6572 51.3503 51.1891 50.9491L39.5225 40.9491C38.9983 40.4998 38.9376 39.7107 39.3869 39.1865Z" fill="#717272"/>
</g>
<defs>
<filter id="filter0_d_4585_25151" x="0" y="0.0100002" width="104" height="104" filterUnits="userSpaceOnUse" color-interpolation-filters="sRGB">
<feFlood flood-opacity="0" result="BackgroundImageFix"/>
<feColorMatrix in="SourceAlpha" type="matrix" values="0 0 0 0 0 0 0 0 0 0 0 0 0 0 0 0 0 0 127 0" result="hardAlpha"/>
<feMorphology radius="2" operator="dilate" in="SourceAlpha" result="effect1_dropShadow_4585_25151"/>
<feOffset dy="7.01"/>
<feGaussianBlur stdDeviation="8.5"/>
<feComposite in2="hardAlpha" operator="out"/>
<feColorMatrix type="matrix" values="0 0 0 0 0.776923 0 0 0 0 0.00522938 0 0 0 0 0.00522938 0 0 0 0.06 0"/>
<feBlend mode="normal" in2="BackgroundImageFix" result="effect1_dropShadow_4585_25151"/>
<feBlend mode="normal" in="SourceGraphic" in2="effect1_dropShadow_4585_25151" result="shape"/>
</filter>
<linearGradient id="paint0_linear_4585_25151" x1="51.8958" y1="15" x2="53.8888" y2="73.2967" gradientUnits="userSpaceOnUse">
<stop stop-color="#CA5D62"/>
<stop offset="1" stop-color="#F8CFD1"/>
</linearGradient>
</defs>
</svg>
