<svg width="16" height="18" viewBox="0 0 16 18" fill="none" xmlns="http://www.w3.org/2000/svg">
<path fill-rule="evenodd" clip-rule="evenodd" d="M8.32865 2.08381C8.21986 2.04886 8.10089 2.05733 7.99983 2.10603C7.88919 2.15935 7.81607 2.2524 7.7898 2.35365L7.43302 3.72905C7.30825 4.21004 7.12659 4.67398 6.89261 5.11199C6.52937 5.792 5.97974 6.315 5.46985 6.75438L4.3908 7.68423C4.22356 7.82834 4.13555 8.04437 4.15461 8.26484L4.76374 15.3093C4.79451 15.6652 5.09183 15.9375 5.44726 15.9375H8.93373C11.286 15.9375 13.2678 14.3008 13.6479 12.1029L14.1771 9.04304C14.2499 8.62193 13.9261 8.23815 13.5011 8.23815H9.61527C8.88242 8.23815 8.32579 7.58067 8.44411 6.85854L8.94111 3.82512C9.00919 3.4096 8.98975 2.98442 8.88403 2.57688C8.83038 2.37007 8.66719 2.19256 8.43738 2.11874L8.32865 2.08381L8.5007 1.54826L8.32865 2.08381ZM7.51147 1.09256C7.87341 0.918147 8.29044 0.889908 8.67274 1.01272L8.78146 1.04765L8.60942 1.58319L8.78147 1.04765C9.36422 1.23486 9.8189 1.70039 9.97299 2.2944C10.118 2.85358 10.1447 3.43692 10.0513 4.00701L9.55431 7.04043C9.54795 7.07925 9.57786 7.11315 9.61527 7.11315H13.5011C14.6256 7.11315 15.4771 8.12738 15.2856 9.23475L14.7565 12.2946C14.2781 15.0608 11.8034 17.0625 8.93373 17.0625H5.44726C4.50702 17.0625 3.72389 16.3427 3.64292 15.4063L3.0338 8.36176C2.98362 7.78147 3.21516 7.21223 3.65641 6.832L4.73547 5.90215C5.22688 5.47869 5.64053 5.06825 5.90031 4.58193C6.09274 4.22169 6.24179 3.8408 6.34406 3.44657L6.70084 2.07118C6.81277 1.6397 7.11248 1.28482 7.51147 1.09256ZM1.22575 7.11367C1.5267 7.10069 1.78446 7.32708 1.81041 7.62719L2.53911 16.0546C2.58592 16.5959 2.15951 17.0625 1.61503 17.0625C1.10217 17.0625 0.6875 16.6464 0.6875 16.1346V7.67565C0.6875 7.37442 0.924801 7.12666 1.22575 7.11367Z" fill="#7000CC"/>
</svg>
