<svg width="104" height="113" viewBox="0 0 104 113" fill="none" xmlns="http://www.w3.org/2000/svg">
<path d="M85.0781 98.1611L90.1576 51.3281C90.1576 51.3281 105.316 67.6522 102.689 76.5716C101.514 80.5566 87.7882 88.8608 87.7882 88.8608C88.8646 94.9819 91.5142 88.1955 93.546 90.5222C95.5778 94.1762 90.4983 99.1574 85.0781 98.1611Z" fill="#FEBFE4" stroke="#30545A" stroke-width="0.75"/>
<path d="M87.5 75.9382C90.2579 74.6453 93.0189 73.3523 95.7768 72.0625" stroke="#30545A" stroke-width="0.75"/>
<path d="M14.9778 40.3565C13.7931 18.7263 31.5982 1 53.6866 1C75.3324 1 92.956 18.0486 92.163 39.2634C90.8955 73.1015 87.039 117.811 75.5585 122.424C66.148 126.202 36.598 127.808 29.0282 122.424C20.726 116.518 16.793 73.5262 14.9778 40.3565Z" fill="white"/>
<path d="M91.8202 39.248C91.1865 56.1624 89.9063 75.7844 87.3522 91.7462C86.0752 99.7287 84.4797 106.784 82.4957 112.124C81.5021 114.794 80.4161 117.024 79.2315 118.723C78.0436 120.425 76.7761 121.571 75.4259 122.111C70.7827 123.976 61.092 125.322 51.5923 125.522C46.8504 125.622 42.1722 125.437 38.2138 124.891C34.2394 124.344 31.0452 123.442 29.2268 122.149C28.2555 121.459 27.3161 120.197 26.418 118.411C25.5231 116.631 24.6888 114.357 23.9085 111.677C22.3513 106.321 21.0265 99.3727 19.9023 91.5619C17.6572 75.9437 16.2209 56.915 15.3133 40.3348C14.1382 18.9014 31.7809 1.32812 53.6814 1.32812C75.5819 1.32812 92.6068 18.23 91.817 39.248H91.8202Z" stroke="#30545A" stroke-width="0.75"/>
<path d="M22.301 43.2518C21.2215 23.7672 37.4088 7.87408 57.303 8.15203C76.589 8.42373 92.0789 23.8203 91.2509 42.7178C89.9388 72.6271 86.5632 112.146 77.8628 117.243C77.8596 117.243 77.8533 117.246 77.8501 117.249C69.395 120.625 41.6762 120.953 34.8866 116.143C27.4728 110.89 23.9411 72.8269 22.301 43.2456V43.2518Z" fill="#FEBFE4"/>
<path d="M51.6953 36.8866C54.8752 36.8866 57.453 34.3586 57.453 31.2402C57.453 28.1218 54.8752 25.5938 51.6953 25.5938C48.5153 25.5938 45.9375 28.1218 45.9375 31.2402C45.9375 34.3586 48.5153 36.8866 51.6953 36.8866Z" fill="#161616"/>
<path d="M50.5604 31.5608C51.3747 31.5608 52.0349 30.9666 52.0349 30.2335C52.0349 29.5005 51.3747 28.9062 50.5604 28.9062C49.7461 28.9062 49.0859 29.5005 49.0859 30.2335C49.0859 30.9666 49.7461 31.5608 50.5604 31.5608Z" fill="white"/>
<path d="M71.539 45.0741C74.7189 45.0741 77.2968 42.5461 77.2968 39.4277C77.2968 36.3093 74.7189 33.7812 71.539 33.7812C68.3591 33.7812 65.7812 36.3093 65.7812 39.4277C65.7812 42.5461 68.3591 45.0741 71.539 45.0741Z" fill="#161616"/>
<path d="M70.3388 39.764C71.1601 39.764 71.826 39.1697 71.826 38.4367C71.826 37.7036 71.1601 37.1094 70.3388 37.1094C69.5174 37.1094 68.8516 37.7036 68.8516 38.4367C68.8516 39.1697 69.5174 39.764 70.3388 39.764Z" fill="white"/>
<path d="M50.6244 52.3658C52.1806 53.0988 55.44 52.8772 60.3927 52.9431C65.3617 53.0097 67.9981 56.1155 68.8444 54.8245C69.2426 54.2196 68.9739 53.3054 68.6277 52.7649C67.7762 51.4427 66.0135 50.7284 60.0266 50.6793C54.8384 50.6368 55.3834 50.1265 53.8173 50.0605C52.7721 50.0686 50.1592 49.9793 49.6131 50.9921L50.6244 52.3658Z" fill="#161616"/>
<path d="M32.5501 10.3109C32.4354 8.35277 37.8715 7.28781 40.5116 6.88494C41.3714 6.75377 42.3809 7.12854 42.4319 7.98113C42.5847 10.567 34.7506 13.5901 33.0628 11.5945C32.7029 11.1666 32.5787 10.8637 32.5469 10.3109H32.5501Z" fill="#FFDAF0"/>
<path d="M27.6587 17.649C26.8817 16.8214 28.8943 14.4104 29.9166 13.2892C30.2478 12.9239 30.8369 12.7302 31.1745 13.0894C32.2 14.1793 29.8529 18.3173 28.3657 18.0331C28.0472 17.9738 27.8816 17.8832 27.6619 17.649H27.6587Z" fill="#FFDAF0"/>
<path d="M41.464 74.0025C41.6392 72.9282 41.9576 71.2824 42.55 69.3242C43.7346 65.3955 44.7633 64.3586 45.1072 61.5666C45.2696 60.2456 45.5308 58.1313 44.5467 55.8421C42.585 51.2793 37.4642 50.1644 36.3814 50.255C36.0406 50.2831 35.0343 50.3674 34.6585 51.0139C34.5439 51.1732 34.391 51.4293 34.2987 51.7665C34.2987 51.7665 34.2254 52.0351 34.219 52.3287C34.1999 53.275 35.0693 56.7821 35.2732 58.3593C35.3814 59.19 35.3241 59.8739 35.2095 61.2387C34.7509 66.6915 32.2669 70.1081 30.8657 75.7952C30.4994 77.2817 30.0663 79.4991 29.9453 82.3098C33.7859 79.5428 37.6266 76.7758 41.4672 74.0057L41.464 74.0025Z" fill="#FEBFE4"/>
<mask id="mask0_7022_33857" style="mask-type:luminance" maskUnits="userSpaceOnUse" x="29" y="50" width="17" height="33">
<path d="M41.4718 74.0025C41.647 72.9282 41.9655 71.2824 42.5578 69.3242C43.7425 65.3955 44.7711 64.3586 45.115 61.5666C45.2774 60.2456 45.5386 58.1313 44.5545 55.8421C42.5928 51.2793 37.472 50.1644 36.3892 50.255C36.0485 50.2831 35.0421 50.3674 34.6663 51.0139C34.5517 51.1732 34.3988 51.4293 34.3065 51.7665C34.3065 51.7665 34.2332 52.0351 34.2269 52.3287C34.2078 53.275 35.0772 56.7821 35.281 58.3593C35.3892 59.19 35.3319 59.8739 35.2173 61.2387C34.7587 66.6915 32.2747 70.1081 30.8735 75.7952C30.5072 77.2817 30.0741 79.4991 29.9531 82.3098C33.7938 79.5428 37.6344 76.7758 41.475 74.0057L41.4718 74.0025Z" fill="white"/>
</mask>
<g mask="url(#mask0_7022_33857)">
<path d="M47.3507 52.8594C48.3316 57.1817 47.908 60.3921 47.5227 62.1629C47.0195 64.4802 46.0068 66.9474 45.6565 67.8093C45.0928 69.1835 44.5514 70.3078 44.1406 71.1073C45.6692 71.201 47.1978 71.2978 48.7265 71.3915C49.4366 66.7413 50.1468 62.0942 50.857 57.444L47.3475 52.8594H47.3507Z" fill="white"/>
</g>
<path d="M42.6394 68.942C42.8592 68.4111 43.1681 67.6522 43.5088 66.7215C44.3209 64.5385 44.7317 63.4454 44.9483 62.3243C45.1776 61.1687 45.6266 58.8608 44.6521 56.328C44.0853 54.8665 43.2413 53.8421 42.6617 53.2394C41.786 52.4055 40.4644 51.403 38.6746 50.8003C37.9517 50.5567 36.611 50.1913 35.2512 50.5692C34.6397 50.7378 34.4423 51.0064 34.3913 51.0657C33.748 51.8371 34.2926 53.1457 34.6493 54.2606C34.6493 54.2606 36.4804 59.9164 34.6652 64.5385C34.6302 64.6259 34.5665 64.7946 34.3818 65.2443C34.299 65.4473 33.9423 66.3374 33.264 68.1237C32.4742 70.2068 31.7354 72.2961 31.5156 72.9176" stroke="#30545A" stroke-width="0.75"/>
<path d="M18.2242 80.6595C21.2687 79.3697 23.5775 78.0611 25.087 77.1305C29.6378 74.3291 33.0644 71.1998 38.0069 68.4859C38.37 68.286 39.9145 67.7832 41.7934 66.8057C43.7551 65.7845 45.3188 65.6533 46.427 65.7501C48.6467 65.9406 51.2931 67.2336 51.2931 67.2336C51.2931 67.2336 58.5317 73.5608 55.3535 78.0674C52.1752 82.5739 44.1054 90.5939 44.1054 90.5939C40.1343 92.7082 33.0772 96.1654 25.3004 98.2391C24.3036 98.5045 20.9343 99.379 16.4408 99.6944C12.9568 99.938 11.0493 100.05 8.68311 99.1885C7.77549 98.8574 4.41892 97.577 2.46357 94.2166C1.68016 92.8674 1.15789 91.2466 1.04643 88.9699C0.801211 83.998 2.43491 74.6352 9.9665 66.9119C14.5046 62.2586 19.5967 59.8226 23.2909 58.5234C23.6348 62.6146 23.9788 66.7058 24.3227 70.8001C22.9979 71.3279 19.9502 72.752 17.6828 76.0093C16.2306 78.0924 15.6574 80.1192 15.409 81.3997C16.3453 81.1529 17.2847 80.9093 18.221 80.6626L18.2242 80.6595Z" fill="#FEBFE4"/>
<path d="M49.1553 89.4915C48.1426 89.8444 46.6363 90.3754 44.8115 91.0312C29.5445 96.5215 28.6656 97.6864 23.8281 98.7201C19.2455 99.7007 9.37005 101.809 4.18551 96.4746C1.19517 93.3985 0.924478 89.0449 1.01365 86.5496C1.30663 83.4047 2.34163 77.0244 6.85421 70.5691C10.2777 65.669 14.2998 62.7334 16.857 61.1562" stroke="#30545A" stroke-width="0.75"/>
<path d="M11 81.5534C14.2356 81.7127 16.6431 81.1662 18.2131 80.6602C22.3149 79.3361 25.3307 77.178 28.6268 74.6984C30.028 73.6397 31.1299 72.7121 31.8369 72.0938" stroke="#30545A" stroke-width="0.75"/>
<path d="M14.8909 81.3794C14.375 81.3076 13.3464 81.0921 12.3114 80.3519C11.3688 79.6773 10.8592 78.881 10.6172 78.4375" stroke="#30545A" stroke-width="0.75"/>
<path d="M45.423 89.5989C45.423 89.5989 44.1683 89.652 43.0473 89.2835C39.0698 87.9687 37.6462 83.0499 36.8278 80.211C35.9552 77.1911 34.8502 73.3653 36.9329 70.2892C37.6844 69.1774 38.5538 68.6058 39.713 67.8438C43.1524 65.5827 45.4963 65.9887 50.0057 64.4741C52.4737 63.6465 54.1329 62.7345 56.4577 61.4572C59.7697 59.6365 61.9798 57.9657 65.9478 56.6915C67.4446 56.2105 68.9891 55.8389 70.2789 56.5978C71.4699 57.3005 71.8775 58.4778 71.9922 58.8089C72.11 59.1493 72.5654 60.4547 71.9221 61.807C71.6323 62.4129 71.2279 62.8126 70.9604 63.0343C69.1101 63.8338 67.5401 64.5115 66.3427 65.0331C63.3301 66.3416 62.2664 66.8101 60.4607 67.5784C58.6232 68.3591 57.0659 69.0025 55.9099 69.4772C58.3398 69.4709 60.2919 71.0387 60.604 72.9469C60.9161 74.855 59.4576 76.3229 59.2856 76.4915C60.9161 77.4222 61.9161 79.0399 61.846 80.7076C61.7919 81.9974 61.1168 82.9187 60.8015 83.2935C60.6518 83.4746 60.4416 83.7432 60.1263 84.0805C58.222 86.1011 55.6456 87.1692 55.6456 87.1692C52.9323 88.3996 52.91 87.6033 48.6363 89.0086C47.9866 89.2241 46.9071 89.5958 45.4262 89.5989H45.423Z" fill="#FEBFE4"/>
<path d="M50.6641 80.6883C53.078 79.9263 55.027 79.1393 56.4409 78.5147C58.6479 77.5403 59.1351 77.1499 59.5204 76.6377C60.6892 75.0825 61.0204 72.2499 59.3294 70.6165C58.0842 69.4141 56.3518 69.4516 55.9059 69.4766" stroke="#30545A" stroke-width="0.75"/>
<path d="M41.5703 66.5356C46.4268 65.2208 50.2388 63.7873 52.8725 62.6974C56.9519 61.0047 59.9455 59.6649 59.9455 59.6649C65.7319 57.0728 68.6777 55.4238 70.477 56.7324C70.8018 56.9666 71.4546 57.5819 71.8718 58.5063C71.9705 58.728 72.7699 60.5768 71.8814 62.0728C71.5629 62.6068 71.1425 62.9066 70.9483 63.0409C67.9993 65.0678 60.748 67.3007 55.8978 69.4806C54.9393 69.9116 54.7673 70.0303 52.9425 70.8579C50.1942 72.104 47.9491 73.0346 46.5319 73.6061" stroke="#30545A" stroke-width="0.75"/>
<path d="M59.2623 76.5C59.5967 76.7561 62.0234 78.6643 61.7622 81.2501C61.6667 82.1964 61.2463 82.8835 60.9756 83.3145C59.9088 85.0165 58.307 85.841 56.2561 86.7529C54.3103 87.6211 51.8199 88.6299 48.8359 89.6011" stroke="#30545A" stroke-width="0.75"/>
<path d="M18.2298 75.2344C18.0196 75.453 17.8126 75.6903 17.6088 75.9495C16.2139 77.7203 15.6789 79.6441 15.4688 81.1026" stroke="#30545A" stroke-width="0.75"/>
</svg>
