<svg width="22" height="19" viewBox="0 0 22 19" fill="none" xmlns="http://www.w3.org/2000/svg">
<path d="M21.0034 17.9988L15.7534 7.49875C15.7068 7.40515 15.635 7.3264 15.546 7.27136C15.4571 7.21632 15.3546 7.18716 15.25 7.18716C15.1454 7.18716 15.0429 7.21632 14.954 7.27136C14.865 7.3264 14.7932 7.40515 14.7466 7.49875L12.6559 11.68C10.9087 11.6075 9.22708 10.9939 7.84375 9.92406C9.45193 8.27937 10.4115 6.10886 10.5456 3.8125H13C13.1492 3.8125 13.2923 3.75324 13.3977 3.64775C13.5032 3.54226 13.5625 3.39918 13.5625 3.25C13.5625 3.10082 13.5032 2.95774 13.3977 2.85225C13.2923 2.74676 13.1492 2.6875 13 2.6875H7.5625V1C7.5625 0.850816 7.50324 0.707742 7.39775 0.602252C7.29226 0.496763 7.14918 0.4375 7 0.4375C6.85082 0.4375 6.70774 0.496763 6.60225 0.602252C6.49676 0.707742 6.4375 0.850816 6.4375 1V2.6875H1C0.850816 2.6875 0.707742 2.74676 0.602252 2.85225C0.496763 2.95774 0.4375 3.10082 0.4375 3.25C0.4375 3.39918 0.496763 3.54226 0.602252 3.64775C0.707742 3.75324 0.850816 3.8125 1 3.8125H9.41781C9.2843 5.83375 8.42577 7.7389 7 9.17781C6.12548 8.29648 5.45669 7.23263 5.04156 6.0625C5.01827 5.9912 4.98094 5.92528 4.93179 5.86861C4.88264 5.81195 4.82265 5.76569 4.75535 5.73255C4.68806 5.69942 4.61481 5.68008 4.53993 5.67567C4.46505 5.67126 4.39004 5.68188 4.31932 5.70689C4.24861 5.7319 4.1836 5.7708 4.12814 5.82131C4.07268 5.87181 4.02788 5.9329 3.99638 6.00098C3.96488 6.06906 3.94732 6.14274 3.94472 6.21771C3.94212 6.29268 3.95454 6.36741 3.98125 6.4375C4.44397 7.74436 5.18623 8.93453 6.15625 9.925C4.68124 11.0694 2.8669 11.6896 1 11.6875C0.850816 11.6875 0.707742 11.7468 0.602252 11.8523C0.496763 11.9577 0.4375 12.1008 0.4375 12.25C0.4375 12.3992 0.496763 12.5423 0.602252 12.6477C0.707742 12.7532 0.850816 12.8125 1 12.8125C3.18415 12.8145 5.30258 12.0654 7 10.6909C8.46309 11.8706 10.241 12.5934 12.1122 12.7694L9.4975 17.9988C9.46451 18.0649 9.44486 18.1368 9.43967 18.2105C9.43449 18.2842 9.44387 18.3582 9.46729 18.4283C9.51459 18.5699 9.61617 18.6868 9.74969 18.7534C9.88321 18.8201 10.0377 18.8309 10.1793 18.7836C10.3208 18.7364 10.4377 18.6348 10.5044 18.5013L11.8478 15.8125H18.6522L19.9966 18.5013C20.0433 18.5948 20.1151 18.6735 20.204 18.7284C20.293 18.7834 20.3955 18.8125 20.5 18.8125C20.5873 18.8127 20.6734 18.7922 20.7512 18.7525C20.8846 18.6859 20.986 18.5691 21.0333 18.4278C21.0805 18.2865 21.0698 18.1322 21.0034 17.9988ZM12.4103 14.6875L15.25 9.00813L18.0897 14.6875H12.4103Z" fill="#7000CC"/>
</svg>
