<svg width="24" height="24" viewBox="0 0 24 24" fill="none" xmlns="http://www.w3.org/2000/svg">
<path d="M0 12C0 5.37258 5.37258 0 12 0C18.6274 0 24 5.37258 24 12C24 18.6274 18.6274 24 12 24C5.37258 24 0 18.6274 0 12Z" fill="#FAEAED"/>
<rect x="4.20312" y="11.6016" width="0.8" height="0.8" rx="0.4" fill="#E5000B"/>
<rect x="6.20312" y="11.6016" width="0.8" height="0.8" rx="0.4" fill="#E5000B"/>
<rect x="8.20312" y="11.6016" width="0.8" height="0.8" rx="0.4" fill="#E5000B"/>
<rect x="10.2031" y="11.6016" width="0.8" height="0.8" rx="0.4" fill="#E5000B"/>
<rect x="12.2031" y="11.6016" width="0.8" height="0.8" rx="0.4" fill="#E5000B"/>
<rect x="14.2031" y="11.6016" width="0.8" height="0.8" rx="0.4" fill="#E5000B"/>
<rect x="16.2031" y="11.6016" width="0.8" height="0.8" rx="0.4" fill="#E5000B"/>
<rect x="18.2031" y="11.6016" width="0.8" height="0.8" rx="0.4" fill="#E5000B"/>
<rect x="20.2031" y="11.6016" width="0.8" height="0.8" rx="0.4" fill="#E5000B"/>
</svg>
