<svg width="24" height="24" viewBox="0 0 24 24" fill="none" xmlns="http://www.w3.org/2000/svg">
<path d="M0 12C0 5.37258 5.37258 0 12 0C18.6274 0 24 5.37258 24 12C24 18.6274 18.6274 24 12 24C5.37258 24 0 18.6274 0 12Z" fill="#FAEAED"/>
<path fill-rule="evenodd" clip-rule="evenodd" d="M12 5.4375C12.3107 5.4375 12.5625 5.68934 12.5625 6V7.8C12.5625 8.11066 12.3107 8.3625 12 8.3625C11.6893 8.3625 11.4375 8.11066 11.4375 7.8V6C11.4375 5.68934 11.6893 5.4375 12 5.4375ZM16.6404 7.35961C16.8601 7.57928 16.8601 7.93544 16.6404 8.15511L15.3676 9.4279C15.1479 9.64757 14.7918 9.64757 14.5721 9.4279C14.3524 9.20823 14.3524 8.85207 14.5721 8.6324L15.8449 7.35961C16.0646 7.13994 16.4207 7.13994 16.6404 7.35961ZM7.35945 7.35974C7.57912 7.14007 7.93528 7.14007 8.15495 7.35974L9.42774 8.63254C9.64741 8.85221 9.64741 9.20836 9.42774 9.42803C9.20807 9.6477 8.85191 9.6477 8.63224 9.42803L7.35945 8.15524C7.13978 7.93557 7.13978 7.57941 7.35945 7.35974ZM5.4375 12C5.4375 11.6893 5.68934 11.4375 6 11.4375H7.8C8.11066 11.4375 8.3625 11.6893 8.3625 12C8.3625 12.3107 8.11066 12.5625 7.8 12.5625H6C5.68934 12.5625 5.4375 12.3107 5.4375 12ZM15.6375 12C15.6375 11.6893 15.8893 11.4375 16.2 11.4375H18C18.3107 11.4375 18.5625 11.6893 18.5625 12C18.5625 12.3107 18.3107 12.5625 18 12.5625H16.2C15.8893 12.5625 15.6375 12.3107 15.6375 12ZM9.4279 14.5721C9.64757 14.7918 9.64757 15.1479 9.4279 15.3676L8.15511 16.6404C7.93544 16.8601 7.57928 16.8601 7.35961 16.6404C7.13994 16.4207 7.13994 16.0646 7.35961 15.8449L8.6324 14.5721C8.85207 14.3524 9.20823 14.3524 9.4279 14.5721ZM14.5719 14.5722C14.7916 14.3526 15.1478 14.3526 15.3674 14.5722L16.6402 15.845C16.8599 16.0647 16.8599 16.4209 16.6402 16.6405C16.4206 16.8602 16.0644 16.8602 15.8447 16.6405L14.5719 15.3677C14.3523 15.1481 14.3523 14.7919 14.5719 14.5722ZM12 15.6375C12.3107 15.6375 12.5625 15.8893 12.5625 16.2V18C12.5625 18.3107 12.3107 18.5625 12 18.5625C11.6893 18.5625 11.4375 18.3107 11.4375 18V16.2C11.4375 15.8893 11.6893 15.6375 12 15.6375Z" fill="#CE3149"/>
</svg>
