<svg width="22" height="22" viewBox="0 0 22 22" fill="none" xmlns="http://www.w3.org/2000/svg">
<path fill-rule="evenodd" clip-rule="evenodd" d="M8.91814 2.6318C8.06272 3.28446 7.06817 4.27676 5.67247 5.67247C4.27676 7.06817 3.28446 8.06272 2.6318 8.91814C1.99235 9.75625 1.75 10.3721 1.75 11C1.75 11.6279 1.99235 12.2438 2.6318 13.0819C3.28446 13.9373 4.27676 14.9318 5.67247 16.3275C7.06817 17.7232 8.06272 18.7155 8.91814 19.3682C9.75625 20.0077 10.3721 20.25 11 20.25C11.6279 20.25 12.2438 20.0077 13.0819 19.3682C13.9373 18.7155 14.9318 17.7232 16.3275 16.3275C17.7232 14.9318 18.7155 13.9373 19.3682 13.0819C20.0077 12.2438 20.25 11.6279 20.25 11C20.25 10.3721 20.0077 9.75625 19.3682 8.91814C18.7155 8.06272 17.7232 7.06817 16.3275 5.67247C14.9318 4.27676 13.9373 3.28446 13.0819 2.6318C12.2438 1.99235 11.6279 1.75 11 1.75C10.3721 1.75 9.75625 1.99235 8.91814 2.6318ZM8.00827 1.43927C8.9798 0.698011 9.91222 0.25 11 0.25C12.0878 0.25 13.0202 0.698011 13.9917 1.43927C14.9366 2.1602 16.0014 3.22502 17.3482 4.57182L17.4282 4.65179C18.775 5.99857 19.8398 7.06337 20.5607 8.00827C21.302 8.9798 21.75 9.91222 21.75 11C21.75 12.0878 21.302 13.0202 20.5607 13.9917C19.8398 14.9366 18.775 16.0014 17.4282 17.3482L17.3482 17.4282C16.0014 18.775 14.9366 19.8398 13.9917 20.5607C13.0202 21.302 12.0878 21.75 11 21.75C9.91222 21.75 8.9798 21.302 8.00827 20.5607C7.06337 19.8398 5.99857 18.775 4.65179 17.4282L4.57182 17.3482C3.22502 16.0014 2.1602 14.9366 1.43927 13.9917C0.698011 13.0202 0.25 12.0878 0.25 11C0.25 9.91222 0.698011 8.9798 1.43927 8.00827C2.16019 7.06338 3.225 5.99858 4.57179 4.65182L4.65182 4.57179C5.99858 3.225 7.06338 2.16019 8.00827 1.43927Z" fill="#7000CC"/>
<path fill-rule="evenodd" clip-rule="evenodd" d="M11.7862 7.48704C12.0695 7.18486 12.5441 7.16955 12.8463 7.45285L15.513 9.95285C15.6642 10.0946 15.75 10.2927 15.75 10.5C15.75 10.7073 15.6642 10.9054 15.513 11.0472L12.8463 13.5472C12.5441 13.8305 12.0695 13.8151 11.7862 13.513C11.5029 13.2108 11.5182 12.7361 11.8204 12.4528L13.1034 11.25H9.66667C9.33288 11.25 8.8225 11.3497 8.41961 11.6216C8.05681 11.8665 7.75 12.2655 7.75 13C7.75 13.4142 7.41421 13.75 7 13.75C6.58579 13.75 6.25 13.4142 6.25 13C6.25 11.7345 6.83208 10.8835 7.5804 10.3784C8.28861 9.90032 9.11156 9.75 9.66667 9.75H13.1034L11.8204 8.54715C11.5182 8.26386 11.5029 7.78923 11.7862 7.48704Z" fill="#7000CC"/>
</svg>
