<svg width="18" height="21" viewBox="0 0 18 21" fill="none" xmlns="http://www.w3.org/2000/svg">
<path d="M6.75 5.75C6.75 5.33579 6.41421 5 6 5H4.81597H3.29847C3.66598 2.17873 6.07855 0 9 0C11.9214 0 14.334 2.17873 14.7015 5H13.184L10.5 5C10.0858 5 9.75 5.33579 9.75 5.75C9.75 6.16421 10.0858 6.5 10.5 6.5L13.25 6.5H14.75V8H13.25H10.5C10.0858 8 9.75 8.33579 9.75 8.75C9.75 9.16421 10.0858 9.5 10.5 9.5H13.184H14.7015C14.334 12.3213 11.9214 14.5 9 14.5C6.07855 14.5 3.66598 12.3213 3.29847 9.5H4.81597H6C6.41421 9.5 6.75 9.16421 6.75 8.75C6.75 8.33579 6.41421 8 6 8H4.75H3.25V6.5H4.75H6C6.41421 6.5 6.75 6.16421 6.75 5.75Z" fill="#CE3149"/>
<path fill-rule="evenodd" clip-rule="evenodd" d="M1 7C1.41421 7 1.75 7.33579 1.75 7.75V8.75C1.75 12.7541 4.99594 16 9 16C13.0041 16 16.25 12.7541 16.25 8.75V7.75C16.25 7.33579 16.5858 7 17 7C17.4142 7 17.75 7.33579 17.75 7.75V8.75C17.75 13.3298 14.2314 17.0879 9.75 17.4683V19.75C9.75 20.1642 9.41421 20.5 9 20.5C8.58579 20.5 8.25 20.1642 8.25 19.75V17.4683C3.7686 17.0879 0.25 13.3298 0.25 8.75V7.75C0.25 7.33579 0.585786 7 1 7Z" fill="#CE3149"/>
</svg>
