<svg width="64" height="64" viewBox="0 0 64 64" fill="none" xmlns="http://www.w3.org/2000/svg">
<g clip-path="url(#clip0_4585_24455)">
<rect x="2" y="2" width="60" height="60" rx="30" fill="url(#paint0_linear_4585_24455)"/>
<path d="M46.8938 56.6419L51.8445 40.5991C51.8445 40.5991 55.9272 47.3297 54.4149 50.2719C53.7399 51.5876 48.4604 53.5703 48.4604 53.5703C48.4109 55.783 49.7841 53.5881 50.322 54.538C50.769 55.9527 48.6848 57.3545 46.8938 56.6419Z" fill="#FEBFE4" stroke="#30545A" stroke-width="0.237636"/>
<path d="M49.2499 49.0291C50.2845 48.7611 51.3209 48.4959 52.3555 48.2279" stroke="#30545A" stroke-width="0.237636"/>
<path d="M26.8155 31.7186C27.8903 24.0721 35.2144 19.0656 42.7929 20.5494C50.2203 22.0036 55.097 29.1527 53.3723 36.5199C50.62 48.2731 46.2355 63.6546 41.9801 64.4986C38.4932 65.1889 28.2441 63.7638 26.0167 61.3732C23.572 58.7493 25.1689 43.4447 26.8178 31.7191L26.8155 31.7186Z" fill="url(#paint1_linear_4585_24455)"/>
<path d="M53.2562 36.4909C51.8816 42.3655 50.0983 49.1445 48.1265 54.557C47.1404 57.2645 46.111 59.6256 45.0647 61.3585C44.5425 62.2263 44.0155 62.9339 43.4928 63.4469C42.9696 63.9622 42.454 64.2787 41.9546 64.3764C40.2325 64.7173 36.8169 64.5384 33.5427 63.9698C31.9091 63.6861 30.316 63.3067 28.9961 62.8504C27.6692 62.3927 26.6365 61.8624 26.1001 61.2868C25.815 60.98 25.5785 60.4752 25.3918 59.7896C25.2069 59.1067 25.0767 58.2559 24.9933 57.2647C24.8259 55.2846 24.8459 52.7669 24.9975 49.9588C25.2957 44.3441 26.1065 37.5894 26.9331 31.7282C27.9989 24.1524 35.2545 19.1879 42.7702 20.6594C50.286 22.1309 54.9658 29.1883 53.2571 36.4863L53.2562 36.4909Z" stroke="#30545A" stroke-width="0.237636"/>
<path d="M29.1286 33.2221C30.0936 26.3335 36.7344 21.8592 43.5408 23.2932C50.1385 24.6838 54.3988 31.1114 52.8208 37.6676C50.3234 48.0446 46.457 61.6429 43.124 62.8412C43.124 62.8412 43.1217 62.8408 43.1189 62.8426C39.9874 63.4554 30.4549 61.7097 28.4534 59.5708C26.2686 57.2343 27.6649 43.6809 29.1286 33.2221Z" fill="#FEBFE4"/>
<path d="M37.8423 35.179C38.9225 35.3905 40.0125 34.4673 40.2769 33.117C40.5413 31.7667 39.8799 30.5007 38.7997 30.2892C37.7194 30.0777 36.6294 31.0009 36.3651 32.3511C36.1007 33.7014 36.7621 34.9675 37.8423 35.179Z" fill="#161616"/>
<path d="M45.8189 37.1712C46.8991 37.3827 47.9891 36.4595 48.2535 35.1092C48.5178 33.7589 47.8565 32.4929 46.7762 32.2814C45.696 32.0699 44.606 32.9931 44.3416 34.3433C44.0773 35.6936 44.7387 36.9597 45.8189 37.1712Z" fill="#161616"/>
<path d="M37.8516 33.002C38.1725 33.0648 38.5119 32.7105 38.6098 32.2107C38.7077 31.7108 38.5269 31.2547 38.206 31.1919C37.8851 31.1291 37.5457 31.4833 37.4478 31.9832C37.3499 32.483 37.5307 32.9392 37.8516 33.002Z" fill="white"/>
<path d="M45.8282 34.9942C46.149 35.057 46.4885 34.7027 46.5864 34.2029C46.6842 33.703 46.5034 33.2469 46.1826 33.1841C45.8617 33.1212 45.5222 33.4755 45.4244 33.9754C45.3265 34.4752 45.5073 34.9314 45.8282 34.9942Z" fill="white"/>
<path d="M33.4596 23.1954C33.5543 22.5024 35.4923 22.4949 36.4262 22.532C36.7303 22.5441 37.0509 22.7428 37.0097 23.0444C36.8848 23.959 33.9899 24.4901 33.5484 23.6795C33.4538 23.5057 33.4328 23.3913 33.4596 23.1954Z" fill="#FFAFCB" fill-opacity="0.31"/>
<path d="M31.2816 25.4287C31.0713 25.0872 31.9274 24.3785 32.3547 24.055C32.4938 23.9497 32.7082 23.921 32.7997 24.0697C33.0772 24.5204 31.9878 25.8094 31.4971 25.6109C31.392 25.5683 31.3411 25.5253 31.2816 25.4287Z" fill="#FFAFCB" fill-opacity="0.31"/>
<path d="M39.59 39.9467C40.0831 39.5487 40.8161 41.4286 41.9638 41.7232C43.1114 42.0179 44.8211 39.8387 45.0645 40.4233C45.3049 41.0096 44.5342 42.1057 43.3974 42.6134C42.2755 43.1124 41.0261 42.7916 40.2833 41.8139C39.5294 40.8208 39.2671 40.4956 39.5936 39.9491L39.59 39.9467Z" fill="#161616"/>
<path d="M11.3257 24.9055C12.755 25.2047 13.6522 26.8998 13.2679 28.7368C13.0687 29.6895 12.9219 30.7653 12.6343 31.5754C12.4909 31.9789 12.3184 32.2985 12.1012 32.4975C11.8908 32.6901 11.6326 32.7756 11.2917 32.7043C10.5634 32.552 9.5917 31.9892 8.87718 31.1068C8.16574 30.2282 7.71605 29.0411 8.00965 27.6369C8.39394 25.7998 9.89607 24.6064 11.3257 24.9055Z" fill="#FEBFE4" stroke="#30545A" stroke-width="0.244062"/>
<path d="M34.1765 46.2248C30.0164 46.872 28.6391 46.1772 28.1692 45.3935C27.0791 43.5725 29.4568 38.8724 30.1195 35.9784C30.1463 35.8576 30.169 35.2753 30.3195 34.5255C30.4753 33.7577 30.3638 33.2167 30.2202 32.8517C29.9329 32.1216 29.2214 31.3585 29.2214 31.3585C29.2214 31.3585 26.3175 29.5565 25.0814 31.091C23.8453 32.6256 21.8875 36.1708 21.8875 36.1708C21.1447 39.1744 21.0727 41.6617 21.1326 43.3065C21.2481 46.5142 21.3407 49.0499 23.0758 50.3384C24.0862 51.0867 25.4548 51.0984 28.1931 51.1177C30.25 51.133 31.9507 50.9347 33.1288 50.7486C33.4778 49.2413 33.8254 47.7315 34.1744 46.2242L34.1765 46.2248Z" fill="#FEBFE4"/>
<mask id="mask0_4585_24455" style="mask-type:luminance" maskUnits="userSpaceOnUse" x="21" y="30" width="14" height="22">
<path d="M34.1843 46.2327C30.0242 46.8798 28.6469 46.185 28.177 45.4013C27.0869 43.5803 29.4646 38.8802 30.1273 35.9862C30.1541 35.8654 30.1768 35.2831 30.3273 34.5334C30.4831 33.7655 30.3716 33.2245 30.228 32.8595C29.9408 32.1294 29.2292 31.3663 29.2292 31.3663C29.2292 31.3663 26.3253 29.5643 25.0892 31.0989C23.8531 32.6334 21.8953 36.1787 21.8953 36.1787C21.1525 39.1822 21.0805 41.6695 21.1404 43.3143C21.2559 46.522 21.3485 49.0577 23.0836 50.3462C24.094 51.0946 25.4626 51.1062 28.201 51.1255C30.2578 51.1408 31.9585 50.9425 33.1366 50.7564C33.4856 49.2491 33.8332 47.7393 34.1823 46.2321L34.1843 46.2327Z" fill="white"/>
</mask>
<g mask="url(#mask0_4585_24455)">
<path d="M20.9365 39.4343C22.0213 36.2172 23.7635 34.0068 24.8961 32.78C23.7276 35.3094 22.1267 39.771 22.5242 45.33C22.6682 47.342 23.0451 49.1105 23.4871 50.5906C22.4621 50.1891 21.4385 49.7902 20.4135 49.3887C20.036 47.6593 19.4509 43.8447 20.9385 39.4349L20.9365 39.4343Z" fill="white"/>
</g>
<path d="M21.5312 36.9141C21.2591 40.9647 21.1632 43.2451 21.1758 44.4791C21.1847 45.3695 21.2055 46.1303 21.4121 47.105C21.6617 48.2821 21.9103 49.3738 22.8358 50.1364C23.4486 50.6415 24.1453 50.8244 24.5619 50.9359C25.0861 51.0746 25.5557 51.0948 26.4728 51.1286C26.982 51.1474 27.6845 51.1618 28.5319 51.136" stroke="#30545A" stroke-width="0.201178"/>
<path d="M30.4609 33.2656C30.4597 33.6186 30.4536 33.944 30.4455 34.1794C30.4015 35.2571 29.9026 36.777 28.906 39.7758C28.1861 41.9441 27.8862 42.6456 27.8917 43.9036C27.8936 44.9664 28.1118 45.842 28.3046 46.4331" stroke="#30545A" stroke-width="0.201178"/>
<path d="M27.9766 45.1016C28.0541 45.2683 28.2308 45.595 28.5889 45.8682C28.9165 46.1194 29.241 46.2103 29.4184 46.245" stroke="#30545A" stroke-width="0.201178"/>
<path d="M24.0827 25.4198C27.0287 25.7769 25.5499 26.1905 26.1467 27.0438C25.2665 28.3105 23.0602 31.323 21.2767 33.2397C19.0474 35.6356 12.5195 30.1583 11.3348 27.2678C10.1501 24.3773 13.3152 22.2579 14.0583 21.4592C14.6528 20.8203 15.1505 21.7801 15.3251 22.3399C16.1253 23.082 17.31 25.9725 24.0827 25.4198Z" fill="#FEBFE4"/>
<path d="M14.6641 21.1328C15.215 22.1422 16.6913 24.2708 18.1892 24.7109C20.0615 25.261 21.4657 25.6736 24.5493 25.5625" stroke="#30545A" stroke-width="0.224325"/>
<path d="M13.2578 20.7188C13.3592 22.1045 12.8743 27.2164 21.9873 27.3514" stroke="#30545A" stroke-width="0.224325"/>
<path d="M12.4688 19.9766C12.5701 21.3623 10.9295 28.6771 21.4468 29.2246" stroke="#30545A" stroke-width="0.224325"/>
<path d="M11.8047 27.4062C12.0621 28.8378 16.7075 34.9485 22.2135 33.5153" stroke="#30545A" stroke-width="0.224325"/>
<path d="M10.1475 34.9897L15.7772 10.8468C15.9235 10.2193 16.5718 9.84803 17.1871 10.0394L31.6214 14.53C32.2208 14.7164 32.5462 15.3626 32.3391 15.9552L24.2598 39.0778C24.0654 39.6341 23.47 39.9414 22.9039 39.7775L10.9193 36.3073C10.3527 36.1432 10.0135 35.5643 10.1475 34.9897Z" fill="#30545A"/>
<path opacity="0.5" d="M15.4064 35.2241L15.4193 35.1363C15.5074 34.5358 16.1058 34.1515 16.6885 34.3214L19.3339 35.0924C19.9688 35.2774 20.2525 36.0168 19.9042 36.579L19.8562 36.6565C19.6197 37.0384 19.1575 37.2157 18.7263 37.09L16.1161 36.3292C15.6369 36.1895 15.334 35.7179 15.4064 35.2241Z" fill="#5F9BA5"/>
<path d="M21.2985 26.6905L20.9563 26.7263C20.9563 26.7263 20.1429 26.8116 19.8468 24.5989C19.5507 22.3862 20.3641 22.3009 20.3641 22.3009L20.5796 22.2783C21.1105 22.2226 21.5082 21.7756 21.5153 21.2264L21.53 20.103C21.5388 19.4232 20.9552 18.8733 20.2981 18.9422L19.1188 19.0658C18.793 19.0999 18.4862 19.2352 18.2982 19.505C17.8172 20.1953 17.0053 21.856 17.4065 24.8547C17.8321 28.0347 19.4737 29.4395 20.2172 29.9222C20.4524 30.0748 20.7292 30.1158 21.0006 30.0873L22.068 29.9754C22.7884 29.8999 23.2086 29.1291 22.9046 28.4405L22.4312 27.3683C22.2316 26.9161 21.7715 26.6409 21.2985 26.6905Z" fill="#80C6D1"/>
<path d="M26.1091 30.2486C26.0286 28.9608 26.0106 28.251 26.1892 27.1935C26.5504 25.069 26.3136 24.3476 26.8006 22.9503C27.0305 22.2905 27.3986 21.2326 28.3834 20.3751C30.3486 18.6639 32.9772 19.3003 33.4569 19.5873C33.6074 19.679 34.056 19.9473 34.0803 20.3363C34.0958 20.4376 34.1078 20.5931 34.0731 20.7733C34.0731 20.7733 34.0453 20.9174 33.9806 21.057C33.7698 21.5078 32.5573 22.9675 32.0977 23.6636C31.8553 24.0313 31.7246 24.3657 31.4621 25.0368C30.4119 27.7154 30.4469 30.5519 30.5653 33.8394C30.3904 34.6256 29.1498 34.9467 28.5555 36.3012C27.4167 34.1222 27.4891 36.2909 26.3503 34.1119L26.1091 30.2486Z" fill="#FEBFE4"/>
<mask id="mask1_4585_24455" style="mask-type:luminance" maskUnits="userSpaceOnUse" x="25" y="19" width="10" height="18">
<path d="M25.6569 31.3173C25.8249 30.7705 26.0184 28.2588 26.197 27.2013C26.5583 25.0768 26.3214 24.3554 26.8084 22.9581C27.0383 22.2983 27.4064 21.2404 28.3912 20.3829C30.3564 18.6717 32.9851 19.3081 33.4647 19.5951C33.6152 19.6868 34.0638 19.9551 34.0881 20.3442C34.1036 20.4454 34.1156 20.6009 34.0809 20.7811C34.0809 20.7811 34.0532 20.9252 33.9884 21.0648C33.7776 21.5156 32.5651 22.9754 32.1055 23.6714C31.8631 24.0392 31.7324 24.3735 31.4699 25.0446C30.4197 27.7233 30.7797 29.9003 30.115 32.9041C29.9401 33.6903 29.1484 34.953 28.5542 36.3076C27.4154 34.1286 26.5744 33.5871 25.6209 29.6551L25.6569 31.3173Z" fill="white"/>
</mask>
<g mask="url(#mask1_4585_24455)">
<path d="M29.7387 19.2429C28.4624 20.8399 27.9812 22.2564 27.7791 23.0672C27.5124 24.1291 27.4246 25.3533 27.3904 25.7815C27.3401 26.4646 26.2654 32.4156 26.2682 32.8289L25.842 28.4269C26.4972 26.3576 26.7246 22.514 27.3799 20.4447L29.7387 19.2429Z" fill="white"/>
</g>
<path d="M26.2695 32.8296C25.7224 28.2097 26.3173 25.7109 26.3747 25.1951C26.5033 23.9799 26.5385 23.9252 26.6976 23.3467C26.859 22.7497 27.1843 21.5567 28.2215 20.5822C28.8216 20.021 29.4499 19.7279 29.8573 19.5749C30.4551 19.3802 31.2999 19.2069 32.2677 19.3279C32.659 19.377 33.3633 19.5087 33.906 19.9952C34.1504 20.2131 34.1807 20.3846 34.1889 20.4243C34.3092 20.9348 33.7519 21.4279 33.3294 21.8724C33.3294 21.8724 31.173 24.1262 30.9458 26.7224C30.9419 26.7709 30.9318 26.8669 30.9132 27.1207C30.9055 27.2372 30.8643 27.7349 30.7659 28.7345C30.6513 29.8972 30.4574 34 30.417 34.3448" stroke="#30545A" stroke-width="0.246408"/>
<path d="M13.4172 15.5957C14.8385 15.8932 15.7346 17.581 15.3512 19.4143C14.9676 21.2474 13.4704 22.4337 12.049 22.1367C11.8541 22.0959 11.6616 22.0689 11.4796 22.0446C11.2961 22.02 11.1248 21.9983 10.9638 21.9686C10.6408 21.9089 10.385 21.8195 10.1998 21.6332C10.0168 21.4488 9.88365 21.1489 9.85326 20.6239C9.82284 20.0973 9.89632 19.3592 10.1139 18.3188C10.4974 16.4854 11.9957 15.2983 13.4172 15.5957Z" fill="#FEBFE4" stroke="#30545A" stroke-width="0.26625"/>
<path d="M12.3703 20.2597C13.7917 20.5573 14.6878 22.2451 14.3043 24.0784C13.9207 25.9114 12.4235 27.0978 11.0021 26.8008C10.6173 26.7203 10.2651 26.6556 9.95556 26.5479C9.64928 26.4414 9.39784 26.2969 9.21303 26.0674C8.84246 25.6068 8.69779 24.7484 9.06704 22.9829C9.45055 21.1494 10.9488 19.9624 12.3703 20.2597Z" fill="#FEBFE4" stroke="#30545A" stroke-width="0.26625"/>
<path d="M11.3257 24.9055C12.755 25.2047 13.6522 26.8998 13.2679 28.7368C12.8836 30.5736 11.3486 31.7913 9.91895 31.4923C8.49197 31.1938 7.62488 29.4772 8.00965 27.6369C8.39394 25.7998 9.89607 24.6064 11.3257 24.9055Z" fill="#FEBFE4" stroke="#30545A" stroke-width="0.244062"/>
</g>
<rect x="1" y="1" width="62" height="62" rx="31" stroke="url(#paint2_linear_4585_24455)" stroke-width="2"/>
<defs>
<linearGradient id="paint0_linear_4585_24455" x1="32" y1="2" x2="32" y2="62" gradientUnits="userSpaceOnUse">
<stop stop-color="#FBFFF1"/>
<stop offset="1" stop-color="#F0FDFF"/>
</linearGradient>
<linearGradient id="paint1_linear_4585_24455" x1="42.746" y1="20.5426" x2="34.192" y2="64.2334" gradientUnits="userSpaceOnUse">
<stop stop-color="white"/>
<stop offset="1" stop-color="white" stop-opacity="0.12"/>
</linearGradient>
<linearGradient id="paint2_linear_4585_24455" x1="31.8958" y1="2" x2="33.8888" y2="60.2967" gradientUnits="userSpaceOnUse">
<stop stop-color="#CA5D62"/>
<stop offset="1" stop-color="#F8CFD1"/>
</linearGradient>
<clipPath id="clip0_4585_24455">
<rect x="2" y="2" width="60" height="60" rx="30" fill="white"/>
</clipPath>
</defs>
</svg>
