<svg width="11" height="8" viewBox="0 0 11 8" fill="none" xmlns="http://www.w3.org/2000/svg">
<path d="M9.86817 1.77348L3.86817 7.77348C3.81591 7.82592 3.75381 7.86752 3.68544 7.89591C3.61707 7.9243 3.54376 7.93892 3.46973 7.93892C3.39569 7.93892 3.32239 7.9243 3.25402 7.89591C3.18564 7.86752 3.12355 7.82592 3.07129 7.77348L0.446288 5.14848C0.393965 5.09615 0.352459 5.03403 0.324142 4.96567C0.295825 4.89731 0.28125 4.82404 0.28125 4.75004C0.28125 4.67604 0.295825 4.60277 0.324142 4.53441C0.352459 4.46604 0.393965 4.40392 0.446288 4.3516C0.498612 4.29928 0.560729 4.25777 0.629093 4.22945C0.697457 4.20114 0.770729 4.18656 0.844726 4.18656C0.918723 4.18656 0.991995 4.20114 1.06036 4.22945C1.12872 4.25777 1.19084 4.29928 1.24316 4.3516L3.4702 6.57863L9.07223 0.977538C9.1779 0.871866 9.32123 0.8125 9.47067 0.8125C9.62011 0.8125 9.76343 0.871866 9.86911 0.977538C9.97478 1.08321 10.0341 1.22653 10.0341 1.37598C10.0341 1.52542 9.97478 1.66874 9.86911 1.77441L9.86817 1.77348Z" fill="white"/>
</svg>
