<svg width="20" height="21" viewBox="0 0 20 21" fill="none" xmlns="http://www.w3.org/2000/svg">
<path fill-rule="evenodd" clip-rule="evenodd" d="M1.01825 3.29678C0.625 3.85706 0.625 5.52247 0.625 8.85329V10.4936C0.625 16.3666 5.04059 19.2167 7.811 20.4268C8.56251 20.7551 8.93827 20.9193 10 20.9193C11.0617 20.9193 11.4375 20.7551 12.189 20.4268C14.9594 19.2167 19.375 16.3666 19.375 10.4936V8.85329C19.375 5.52247 19.375 3.85706 18.9818 3.29678C18.5885 2.7365 17.0226 2.20048 13.8907 1.12843L13.294 0.924185C11.6615 0.365353 10.8452 0.0859375 10 0.0859375C9.1548 0.0859375 8.33852 0.365353 6.70596 0.924184L6.10928 1.12843C2.97742 2.20048 1.41149 2.7365 1.01825 3.29678ZM13.1869 8.9396C13.4743 8.61774 13.4463 8.12387 13.1245 7.83651C12.8026 7.54914 12.3088 7.57709 12.0214 7.89895L8.88393 11.4129L7.9786 10.3989C7.69123 10.0771 7.19736 10.0491 6.87551 10.3365C6.55366 10.6239 6.5257 11.1177 6.81307 11.4396L8.30116 13.1063C8.44939 13.2723 8.66138 13.3672 8.88393 13.3672C9.10648 13.3672 9.31847 13.2723 9.46669 13.1063L13.1869 8.9396Z" fill="#4DBB3E"/>
</svg>
