<svg width="19" height="14" viewBox="0 0 19 14" fill="none" xmlns="http://www.w3.org/2000/svg">
<path d="M17 9.00119H2C1.66848 9.00119 1.35054 9.13288 1.11612 9.3673C0.881696 9.60172 0.75 9.91967 0.75 10.2512V12.7512C0.75 13.0827 0.881696 13.4007 1.11612 13.6351C1.35054 13.8695 1.66848 14.0012 2 14.0012H17C17.3315 14.0012 17.6495 13.8695 17.8839 13.6351C18.1183 13.4007 18.25 13.0827 18.25 12.7512V10.2512C18.25 9.91967 18.1183 9.60172 17.8839 9.3673C17.6495 9.13288 17.3315 9.00119 17 9.00119ZM17 12.7512H7V10.2512H17V12.7512ZM15.2031 3.69494C15.8281 2.58322 15.7828 1.99884 15.7 1.74884C15.6638 1.62957 15.5918 1.52431 15.4937 1.44728C15.4184 1.41419 15.3503 1.36653 15.2934 1.30705C15.2365 1.24756 15.1919 1.17742 15.1621 1.10065C15.1324 1.02388 15.1182 0.941997 15.1202 0.8597C15.1222 0.777402 15.1404 0.696314 15.1739 0.621091C15.2073 0.545868 15.2553 0.477994 15.3151 0.421365C15.3748 0.364737 15.4452 0.32047 15.5221 0.291108C15.599 0.261745 15.6809 0.247866 15.7632 0.250266C15.8455 0.252666 15.9265 0.271299 16.0016 0.305094C16.2117 0.412087 16.3982 0.56014 16.5501 0.740493C16.702 0.920846 16.8162 1.12983 16.8859 1.35509C17.1484 2.14728 16.9492 3.14025 16.2922 4.30744C15.6672 5.41916 15.7125 6.00431 15.7953 6.25431C15.8317 6.3733 15.9037 6.47827 16.0016 6.55509C16.0769 6.58819 16.145 6.63584 16.2019 6.69533C16.2589 6.75481 16.3034 6.82495 16.3332 6.90172C16.3629 6.97849 16.3772 7.06038 16.3751 7.14268C16.3731 7.22497 16.3549 7.30606 16.3214 7.38128C16.288 7.45651 16.24 7.52438 16.1803 7.58101C16.1205 7.63764 16.0502 7.6819 15.9733 7.71127C15.8963 7.74063 15.8144 7.75451 15.7321 7.75211C15.6498 7.74971 15.5688 7.73108 15.4937 7.69728C15.2835 7.59043 15.0969 7.44243 14.945 7.26205C14.7931 7.08168 14.6789 6.87262 14.6094 6.64728C14.3492 5.85509 14.5484 4.86056 15.2031 3.69494ZM12.0781 3.69494C12.7031 2.58322 12.6578 1.99884 12.575 1.74884C12.5388 1.62957 12.4668 1.52431 12.3687 1.44728C12.2934 1.41419 12.2253 1.36653 12.1684 1.30705C12.1115 1.24756 12.0669 1.17742 12.0371 1.10065C12.0074 1.02388 11.9932 0.941997 11.9952 0.8597C11.9972 0.777402 12.0154 0.696314 12.0489 0.621091C12.0823 0.545868 12.1303 0.477994 12.1901 0.421365C12.2498 0.364737 12.3202 0.32047 12.3971 0.291108C12.474 0.261745 12.5559 0.247866 12.6382 0.250266C12.7205 0.252666 12.8015 0.271299 12.8766 0.305094C13.0867 0.412087 13.2732 0.56014 13.4251 0.740493C13.577 0.920846 13.6912 1.12983 13.7609 1.35509C14.0234 2.14728 13.8242 3.14025 13.1672 4.30744C12.5422 5.41916 12.5875 6.00431 12.6703 6.25431C12.7067 6.3733 12.7787 6.47827 12.8766 6.55509C12.9519 6.58819 13.02 6.63584 13.0769 6.69533C13.1339 6.75481 13.1784 6.82495 13.2082 6.90172C13.2379 6.97849 13.2522 7.06038 13.2501 7.14268C13.2481 7.22497 13.2299 7.30606 13.1964 7.38128C13.163 7.45651 13.115 7.52438 13.0553 7.58101C12.9955 7.63764 12.9252 7.6819 12.8483 7.71127C12.7713 7.74063 12.6894 7.75451 12.6071 7.75211C12.5248 7.74971 12.4438 7.73108 12.3687 7.69728C12.1585 7.59043 11.9719 7.44243 11.82 7.26205C11.6681 7.08168 11.5539 6.87262 11.4844 6.64728C11.2242 5.85509 11.4234 4.86056 12.0781 3.69494Z" fill="#D199FF"/>
</svg>
