<svg width="24" height="24" viewBox="0 0 24 24" fill="none" xmlns="http://www.w3.org/2000/svg">
<path d="M0 12C0 5.37258 5.37258 0 12 0C18.6274 0 24 5.37258 24 12C24 18.6274 18.6274 24 12 24C5.37258 24 0 18.6274 0 12Z" fill="#FAEAED"/>
<path fill-rule="evenodd" clip-rule="evenodd" d="M12 5.4375C12.3107 5.4375 12.5625 5.68934 12.5625 6L12.5625 18C12.5625 18.3107 12.3107 18.5625 12 18.5625C11.6893 18.5625 11.4375 18.3107 11.4375 18L11.4375 6C11.4375 5.68934 11.6893 5.4375 12 5.4375ZM9 7.6875C9.31066 7.6875 9.5625 7.93934 9.5625 8.25V15.75C9.5625 16.0607 9.31066 16.3125 9 16.3125C8.68934 16.3125 8.4375 16.0607 8.4375 15.75V8.25C8.4375 7.93934 8.68934 7.6875 9 7.6875ZM15 7.6875C15.3107 7.6875 15.5625 7.93934 15.5625 8.25V15.75C15.5625 16.0607 15.3107 16.3125 15 16.3125C14.6893 16.3125 14.4375 16.0607 14.4375 15.75V8.25C14.4375 7.93934 14.6893 7.6875 15 7.6875ZM6 10.6875C6.31066 10.6875 6.5625 10.9393 6.5625 11.25L6.5625 12.75C6.5625 13.0607 6.31066 13.3125 6 13.3125C5.68934 13.3125 5.4375 13.0607 5.4375 12.75L5.4375 11.25C5.4375 10.9393 5.68934 10.6875 6 10.6875ZM18 10.6875C18.3107 10.6875 18.5625 10.9393 18.5625 11.25V12.75C18.5625 13.0607 18.3107 13.3125 18 13.3125C17.6893 13.3125 17.4375 13.0607 17.4375 12.75V11.25C17.4375 10.9393 17.6893 10.6875 18 10.6875Z" fill="#CE3149"/>
</svg>
