<svg width="17" height="18" viewBox="0 0 17 18" fill="none" xmlns="http://www.w3.org/2000/svg">
<path fill-rule="evenodd" clip-rule="evenodd" d="M8.48958 0.65625C3.88721 0.65625 0.15625 4.38721 0.15625 8.98958C0.15625 13.592 3.88721 17.3229 8.48958 17.3229C13.092 17.3229 16.8229 13.592 16.8229 8.98958C16.8229 4.38721 13.092 0.65625 8.48958 0.65625ZM9.11458 4.82292C9.11458 4.47774 8.83476 4.19792 8.48958 4.19792C8.14441 4.19792 7.86458 4.47774 7.86458 4.82292L7.86458 13.1563C7.86458 13.5014 8.14441 13.7813 8.48958 13.7813C8.83476 13.7813 9.11458 13.5014 9.11458 13.1563V4.82292ZM4.94792 6.48958C4.94792 6.14441 4.66809 5.86458 4.32292 5.86458C3.97774 5.86458 3.69792 6.14441 3.69792 6.48958V11.4896C3.69792 11.8348 3.97774 12.1146 4.32292 12.1146C4.66809 12.1146 4.94792 11.8348 4.94792 11.4896L4.94792 6.48958ZM13.2813 7.32292C13.2813 6.97774 13.0014 6.69792 12.6563 6.69792C12.3111 6.69792 12.0313 6.97774 12.0313 7.32292V10.6563C12.0313 11.0014 12.3111 11.2813 12.6563 11.2813C13.0014 11.2813 13.2813 11.0014 13.2813 10.6563V7.32292Z" fill="#D199FF"/>
</svg>
