<svg width="48" height="48" viewBox="0 0 48 48" fill="none" xmlns="http://www.w3.org/2000/svg">
<rect width="48" height="48" rx="24" fill="#F2F2F2"/>
<path d="M23.9974 17.6667C24.5497 17.6667 24.9974 18.1144 24.9974 18.6667V25.3333C24.9974 25.8856 24.5497 26.3333 23.9974 26.3333C23.4451 26.3333 22.9974 25.8856 22.9974 25.3333V18.6667C22.9974 18.1144 23.4451 17.6667 23.9974 17.6667Z" fill="#0D0D0D"/>
<path d="M23.9974 30.6667C24.7338 30.6667 25.3307 30.0697 25.3307 29.3333C25.3307 28.597 24.7338 28 23.9974 28C23.261 28 22.664 28.597 22.664 29.3333C22.664 30.0697 23.261 30.6667 23.9974 30.6667Z" fill="#0D0D0D"/>
<path fill-rule="evenodd" clip-rule="evenodd" d="M19.0566 13.9686C20.4858 12.1532 21.9998 11 23.9974 11C25.9949 11 27.5089 12.1532 28.9381 13.9686C30.3437 15.7539 31.8333 18.395 33.7391 21.774L34.3197 22.8036C35.8952 25.5969 37.1395 27.803 37.7932 29.5738C38.4611 31.3835 38.6198 33.0266 37.6094 34.4759C36.6288 35.8823 34.9929 36.4578 32.9296 36.7295C30.8741 37 28.11 37 24.5638 37H23.431C19.8848 37 17.1206 37 15.0651 36.7295C13.0018 36.4578 11.3659 35.8823 10.3854 34.4759C9.37497 33.0266 9.53364 31.3835 10.2016 29.5738C10.8552 27.803 12.0995 25.5969 13.675 22.8036L14.2555 21.7742C16.1614 18.3951 17.651 15.754 19.0566 13.9686ZM20.628 15.2058C19.3293 16.8553 17.9135 19.3598 15.9507 22.8399L15.4658 23.6996C13.8308 26.5985 12.669 28.6649 12.0778 30.2664C11.4943 31.8473 11.5752 32.6855 12.026 33.3321C12.5068 34.0217 13.409 34.4942 15.3262 34.7466C17.2355 34.9979 19.8675 35 23.5125 35H24.4822C28.1272 35 30.7592 34.9979 32.6686 34.7466C34.5857 34.4942 35.488 34.0217 35.9687 33.3321C36.4195 32.6855 36.5004 31.8473 35.9169 30.2664C35.3258 28.6649 34.1639 26.5984 32.5289 23.6996L32.0441 22.8399C30.0813 19.3598 28.6654 16.8553 27.3667 15.2058C26.0801 13.5715 25.0808 13 23.9974 13C22.9139 13 21.9146 13.5715 20.628 15.2058Z" fill="#0D0D0D"/>
</svg>
