<svg width="15" height="18" viewBox="0 0 15 18" fill="none" xmlns="http://www.w3.org/2000/svg">
<path d="M5.1535 0.65625L9.84482 0.65625C11.3763 0.65625 12.142 0.65625 12.7443 1.02652C12.8483 1.0904 12.9474 1.1618 13.0408 1.24015C13.5827 1.69427 13.8251 2.42064 14.3098 3.87333L14.3397 3.96284C14.6053 4.7589 14.7382 5.15693 14.5978 5.45788C14.5536 5.55285 14.4918 5.63862 14.4157 5.71069C14.1746 5.93906 13.755 5.93906 12.9158 5.93906L12.5607 8.36458H2.43755L2.08244 5.93906C1.24327 5.93906 0.823676 5.93905 0.582622 5.71069C0.506548 5.63862 0.444749 5.55285 0.400466 5.45788C0.260145 5.15693 0.392963 4.7589 0.658599 3.96284L0.688451 3.87338C1.17322 2.42064 1.4156 1.69427 1.95747 1.24015C2.05096 1.1618 2.15006 1.0904 2.25398 1.02652C2.85627 0.65625 3.62201 0.65625 5.1535 0.65625Z" fill="#D199FF"/>
<path d="M11.9506 12.5312H3.04758L2.62056 9.61458H12.3777L11.9506 12.5312Z" fill="#D199FF"/>
<path d="M8.36826 17.3229H6.62995C5.25606 17.3229 4.56912 17.3229 4.09972 16.9172C3.63032 16.5115 3.5308 15.8318 3.33178 14.4724L3.23058 13.7812H11.7676L11.6664 14.4724C11.4674 15.8318 11.3679 16.5115 10.8985 16.9172C10.4291 17.3229 9.74215 17.3229 8.36826 17.3229Z" fill="#D199FF"/>
</svg>
