<svg width="14" height="14" viewBox="0 0 14 14" fill="none" xmlns="http://www.w3.org/2000/svg">
<path d="M11.0128 8.13346L8.85872 7.05654C8.77393 7.01429 8.6795 6.99515 8.58495 7.00106C8.4904 7.00697 8.39908 7.03772 8.32021 7.09019L7.33137 7.74981C6.87743 7.50029 6.50388 7.12677 6.25434 6.67288L6.91402 5.68413C6.9665 5.60527 6.99725 5.51396 7.00316 5.41942C7.00907 5.32488 6.98993 5.23045 6.94767 5.14567L5.87065 2.99183C5.82601 2.90168 5.75701 2.82584 5.67146 2.77291C5.58592 2.71997 5.48726 2.69205 5.38666 2.69231C4.67255 2.69231 3.98768 2.97596 3.48273 3.48087C2.97777 3.98577 2.69409 4.67057 2.69409 5.38462C2.69588 6.95497 3.32054 8.46049 4.43106 9.5709C5.54157 10.6813 7.04724 11.3059 8.61774 11.3077C8.97133 11.3077 9.32146 11.2381 9.64814 11.1028C9.97482 10.9675 10.2716 10.7691 10.5217 10.5191C10.7717 10.2691 10.97 9.97233 11.1053 9.64569C11.2407 9.31904 11.3103 8.96894 11.3103 8.61539C11.3104 8.51535 11.2826 8.41727 11.23 8.33215C11.1775 8.24703 11.1022 8.17823 11.0128 8.13346ZM8.61774 10.2308C7.33277 10.2293 6.10084 9.71831 5.19224 8.80979C4.28363 7.90127 3.77255 6.66946 3.77112 5.38462C3.77102 5.01114 3.90034 4.64916 4.13708 4.36029C4.37383 4.07141 4.70336 3.87349 5.06961 3.80019L5.84238 5.34827L5.18472 6.32692C5.13557 6.40063 5.10538 6.48533 5.0968 6.57351C5.08823 6.66168 5.10155 6.75061 5.13558 6.8324C5.52087 7.74805 6.24937 8.47647 7.1651 8.86173C7.24715 8.89727 7.33676 8.91181 7.42584 8.90406C7.51492 8.8963 7.60067 8.86649 7.67534 8.81731L8.6588 8.16173L10.207 8.93442C10.1332 9.30106 9.93434 9.63071 9.64451 9.86712C9.35467 10.1035 8.99178 10.2321 8.61774 10.2308ZM7.0022 1.66705e-07C5.79355 -0.000263551 4.60542 0.312367 3.55346 0.907462C2.5015 1.50256 1.62154 2.35984 0.99924 3.39587C0.376937 4.43191 0.0334899 5.61139 0.00232769 6.81952C-0.0288345 8.02765 0.25335 9.22327 0.821414 10.29L0.0573988 12.5818C-0.00588685 12.7716 -0.0150711 12.9752 0.0308755 13.1699C0.0768222 13.3646 0.176084 13.5426 0.317535 13.684C0.458987 13.8255 0.637037 13.9247 0.831732 13.9707C1.02643 14.0166 1.23007 14.0074 1.41984 13.9441L3.71188 13.1802C4.65076 13.6795 5.69106 13.9584 6.75383 13.9957C7.81659 14.033 8.87389 13.8277 9.84546 13.3954C10.817 12.9631 11.6773 12.3152 12.3611 11.5008C13.0448 10.6864 13.534 9.72696 13.7916 8.6953C14.0491 7.66364 14.0682 6.58687 13.8475 5.54672C13.6267 4.50657 13.1718 3.53038 12.5174 2.69225C11.863 1.85412 11.0262 1.17608 10.0706 0.709594C9.11496 0.243108 8.06562 0.000436309 7.0022 1.66705e-07ZM7.0022 12.9231C5.96083 12.9238 4.93774 12.6496 4.03634 12.1282C3.97034 12.0899 3.89696 12.0661 3.82107 12.0583C3.74517 12.0505 3.66849 12.059 3.5961 12.0831L1.07855 12.9231L1.91796 10.4058C1.94216 10.3334 1.95071 10.2568 1.94305 10.1809C1.93539 10.105 1.9117 10.0316 1.87353 9.96558C1.22057 8.83677 0.958404 7.52404 1.12771 6.23105C1.29702 4.93806 1.88834 3.73707 2.80993 2.8144C3.73153 1.89173 4.93188 1.29895 6.22478 1.12803C7.51769 0.957099 8.83087 1.21758 9.96061 1.86906C11.0904 2.52053 11.9735 3.52659 12.4731 4.73116C12.9726 5.93573 13.0607 7.27147 12.7235 8.53118C12.3864 9.79088 11.6429 10.9041 10.6085 11.6982C9.57399 12.4923 8.30635 12.9229 7.0022 12.9231Z" fill="white"/>
</svg>
